<?xml version="1.0" encoding="UTF-8" standalone="no"?>
<!DOCTYPE svg PUBLIC "-//W3C//DTD SVG 1.1//EN"
 "http://www.w3.org/Graphics/SVG/1.1/DTD/svg11.dtd">
<!-- Generated by graphviz version 14.1.5 (0)
 -->
<!-- Title: data_flow Pages: 1 -->
<svg width="1846pt" height="625pt"
 viewBox="0.00 0.00 1846.00 625.00" xmlns="http://www.w3.org/2000/svg" xmlns:xlink="http://www.w3.org/1999/xlink">
<g id="graph0" class="graph" transform="scale(1 1) rotate(0) translate(28.8 596.04)">
<title>data_flow</title>
<polygon fill="white" stroke="none" points="-28.8,28.8 -28.8,-596.04 1817.67,-596.04 1817.67,28.8 -28.8,28.8"/>
<text xml:space="preserve" text-anchor="middle" x="894.44" y="-540.44" font-family="Inter, Arial, sans-serif" font-size="24.00">Forecasting Data Flow</text>
<g id="clust1" class="cluster">
<title>cluster_inputs</title>
<path fill="#f0fff4" stroke="#9ae6b4" d="M20,-333.24C20,-333.24 202.53,-333.24 202.53,-333.24 208.53,-333.24 214.53,-339.24 214.53,-345.24 214.53,-345.24 214.53,-494.24 214.53,-494.24 214.53,-500.24 208.53,-506.24 202.53,-506.24 202.53,-506.24 20,-506.24 20,-506.24 14,-506.24 8,-500.24 8,-494.24 8,-494.24 8,-345.24 8,-345.24 8,-339.24 14,-333.24 20,-333.24"/>
<text xml:space="preserve" text-anchor="middle" x="111.27" y="-479.44" font-family="Inter, Arial, sans-serif" font-size="24.00">Input data</text>
</g>
<g id="clust2" class="cluster">
<title>cluster_db_source</title>
<path fill="#fffbeb" stroke="#d6bc8a" d="M598.56,-369.24C598.56,-369.24 836.56,-369.24 836.56,-369.24 842.56,-369.24 848.56,-375.24 848.56,-381.24 848.56,-381.24 848.56,-512.24 848.56,-512.24 848.56,-518.24 842.56,-524.24 836.56,-524.24 836.56,-524.24 598.56,-524.24 598.56,-524.24 592.56,-524.24 586.56,-518.24 586.56,-512.24 586.56,-512.24 586.56,-381.24 586.56,-381.24 586.56,-375.24 592.56,-369.24 598.56,-369.24"/>
<text xml:space="preserve" text-anchor="middle" x="717.56" y="-497.44" font-family="Inter, Arial, sans-serif" font-size="24.00">Postgres source tables</text>
</g>
<g id="clust3" class="cluster">
<title>cluster_worker</title>
<path fill="#f8fafc" stroke="#cbd5e1" d="M261.53,-14.24C261.53,-14.24 1172.09,-14.24 1172.09,-14.24 1178.09,-14.24 1184.09,-20.24 1184.09,-26.24 1184.09,-26.24 1184.09,-189.24 1184.09,-189.24 1184.09,-195.24 1178.09,-201.24 1172.09,-201.24 1172.09,-201.24 261.53,-201.24 261.53,-201.24 255.53,-201.24 249.53,-195.24 249.53,-189.24 249.53,-189.24 249.53,-26.24 249.53,-26.24 249.53,-20.24 255.53,-14.24 261.53,-14.24"/>
<text xml:space="preserve" text-anchor="middle" x="716.81" y="-174.44" font-family="Inter, Arial, sans-serif" font-size="24.00">Python FastAPI worker</text>
</g>
<g id="clust4" class="cluster">
<title>cluster_db_results</title>
<path fill="#fffbeb" stroke="#d6bc8a" d="M1346.09,-196.24C1346.09,-196.24 1570.59,-196.24 1570.59,-196.24 1576.59,-196.24 1582.59,-202.24 1582.59,-208.24 1582.59,-208.24 1582.59,-372.24 1582.59,-372.24 1582.59,-378.24 1576.59,-384.24 1570.59,-384.24 1570.59,-384.24 1346.09,-384.24 1346.09,-384.24 1340.09,-384.24 1334.09,-378.24 1334.09,-372.24 1334.09,-372.24 1334.09,-208.24 1334.09,-208.24 1334.09,-202.24 1340.09,-196.24 1346.09,-196.24"/>
<text xml:space="preserve" text-anchor="middle" x="1458.34" y="-357.44" font-family="Inter, Arial, sans-serif" font-size="24.00">Postgres result tables</text>
</g>
<!-- panel_csv -->
<g id="node1" class="node">
<title>panel_csv</title>
<polygon fill="#ecfdf5" stroke="#2f855a" points="200.53,-463.5 16,-463.5 16,-424.98 206.53,-424.98 206.53,-457.5 200.53,-463.5"/>
<polyline fill="none" stroke="#2f855a" points="200.53,-463.5 200.53,-457.5"/>
<polyline fill="none" stroke="#2f855a" points="206.53,-457.5 200.53,-457.5"/>
<text xml:space="preserve" text-anchor="middle" x="111.27" y="-447.29" font-family="Inter, Arial, sans-serif" font-size="11.00">panel_sales_orders_stock.csv</text>
<text xml:space="preserve" text-anchor="middle" x="111.27" y="-433.79" font-family="Inter, Arial, sans-serif" font-size="11.00">monthly SKU demand, orders, stock</text>
</g>
<!-- seed -->
<g id="node3" class="node">
<title>seed</title>
<path fill="#f7f7f7" stroke="#555555" d="M379.44,-435.5C379.44,-435.5 315.66,-435.5 315.66,-435.5 309.66,-435.5 303.66,-429.5 303.66,-423.5 303.66,-423.5 303.66,-408.98 303.66,-408.98 303.66,-402.98 309.66,-396.98 315.66,-396.98 315.66,-396.98 379.44,-396.98 379.44,-396.98 385.44,-396.98 391.44,-402.98 391.44,-408.98 391.44,-408.98 391.44,-423.5 391.44,-423.5 391.44,-429.5 385.44,-435.5 379.44,-435.5"/>
<text xml:space="preserve" text-anchor="middle" x="347.55" y="-419.29" font-family="Inter, Arial, sans-serif" font-size="11.00">controller seed</text>
<text xml:space="preserve" text-anchor="middle" x="347.55" y="-405.79" font-family="Inter, Arial, sans-serif" font-size="11.00">/ ingest&#45;panel</text>
</g>
<!-- panel_csv&#45;&gt;seed -->
<g id="edge1" class="edge">
<title>panel_csv&#45;&gt;seed</title>
<path fill="none" stroke="#555555" d="M206.88,-432.93C236.76,-429.36 268.67,-425.55 294.43,-422.47"/>
<polygon fill="#555555" stroke="#555555" points="294.64,-425.09 301.77,-421.59 294.01,-419.87 294.64,-425.09"/>
</g>
<!-- config_csv -->
<g id="node2" class="node">
<title>config_csv</title>
<polygon fill="#ecfdf5" stroke="#2f855a" points="161.91,-393.25 54.63,-393.25 54.63,-341.23 167.91,-341.23 167.91,-387.25 161.91,-393.25"/>
<polyline fill="none" stroke="#2f855a" points="161.91,-393.25 161.91,-387.25"/>
<polyline fill="none" stroke="#2f855a" points="167.91,-387.25 161.91,-387.25"/>
<text xml:space="preserve" text-anchor="middle" x="111.27" y="-377.04" font-family="Inter, Arial, sans-serif" font-size="11.00">sku_config.csv</text>
<text xml:space="preserve" text-anchor="middle" x="111.27" y="-363.54" font-family="Inter, Arial, sans-serif" font-size="11.00">MOQ, lot, coverage,</text>
<text xml:space="preserve" text-anchor="middle" x="111.27" y="-350.04" font-family="Inter, Arial, sans-serif" font-size="11.00">service policy</text>
</g>
<!-- config_csv&#45;&gt;seed -->
<g id="edge2" class="edge">
<title>config_csv&#45;&gt;seed</title>
<path fill="none" stroke="#555555" d="M168.38,-378.97C206.73,-387 257.19,-397.55 294.61,-405.38"/>
<polygon fill="#555555" stroke="#555555" points="293.99,-407.93 301.86,-406.89 295.06,-402.79 293.99,-407.93"/>
</g>
<!-- panel_db -->
<g id="node4" class="node">
<title>panel_db</title>
<path fill="#fff4db" stroke="#b7791f" d="M754.2,-477.97C754.2,-479.77 737.55,-481.24 717.06,-481.24 696.57,-481.24 679.92,-479.77 679.92,-477.97 679.92,-477.97 679.92,-448.51 679.92,-448.51 679.92,-446.7 696.57,-445.24 717.06,-445.24 737.55,-445.24 754.2,-446.7 754.2,-448.51 754.2,-448.51 754.2,-477.97 754.2,-477.97"/>
<path fill="none" stroke="#b7791f" d="M754.2,-477.97C754.2,-476.16 737.55,-474.69 717.06,-474.69 696.57,-474.69 679.92,-476.16 679.92,-477.97"/>
<text xml:space="preserve" text-anchor="middle" x="717.06" y="-459.54" font-family="Inter, Arial, sans-serif" font-size="11.00">sales_panel</text>
</g>
<!-- seed&#45;&gt;panel_db -->
<g id="edge3" class="edge">
<title>seed&#45;&gt;panel_db</title>
<path fill="none" stroke="#555555" d="M391.83,-422.5C413.12,-425.53 439.17,-429.17 462.56,-432.24 535.34,-441.79 620.01,-451.96 670.75,-457.94"/>
<polygon fill="#555555" stroke="#555555" points="670.25,-460.53 678.01,-458.8 670.87,-455.31 670.25,-460.53"/>
</g>
<!-- config_db -->
<g id="node5" class="node">
<title>config_db</title>
<path fill="#fff4db" stroke="#b7791f" d="M751.2,-409.97C751.2,-411.77 735.9,-413.24 717.06,-413.24 698.22,-413.24 682.92,-411.77 682.92,-409.97 682.92,-409.97 682.92,-380.51 682.92,-380.51 682.92,-378.7 698.22,-377.24 717.06,-377.24 735.9,-377.24 751.2,-378.7 751.2,-380.51 751.2,-380.51 751.2,-409.97 751.2,-409.97"/>
<path fill="none" stroke="#b7791f" d="M751.2,-409.97C751.2,-408.16 735.9,-406.69 717.06,-406.69 698.22,-406.69 682.92,-408.16 682.92,-409.97"/>
<text xml:space="preserve" text-anchor="middle" x="717.06" y="-391.54" font-family="Inter, Arial, sans-serif" font-size="11.00">sku_config</text>
</g>
<!-- seed&#45;&gt;config_db -->
<g id="edge4" class="edge">
<title>seed&#45;&gt;config_db</title>
<path fill="none" stroke="#555555" d="M391.78,-413.77C462.84,-409.71 603.43,-401.67 673.83,-397.65"/>
<polygon fill="#555555" stroke="#555555" points="673.61,-400.29 680.95,-397.24 673.31,-395.05 673.61,-400.29"/>
</g>
<!-- queue -->
<g id="node7" class="node">
<title>queue</title>
<path fill="#f7f7f7" stroke="#555555" d="M1184.34,-294.25C1184.34,-294.25 1016.31,-294.25 1016.31,-294.25 1010.31,-294.25 1004.31,-288.25 1004.31,-282.25 1004.31,-282.25 1004.31,-254.23 1004.31,-254.23 1004.31,-248.23 1010.31,-242.23 1016.31,-242.23 1016.31,-242.23 1184.34,-242.23 1184.34,-242.23 1190.34,-242.23 1196.34,-248.23 1196.34,-254.23 1196.34,-254.23 1196.34,-282.25 1196.34,-282.25 1196.34,-288.25 1190.34,-294.25 1184.34,-294.25"/>
<text xml:space="preserve" text-anchor="middle" x="1100.33" y="-278.04" font-family="Inter, Arial, sans-serif" font-size="11.00">Rust controller</text>
<text xml:space="preserve" text-anchor="middle" x="1100.33" y="-264.54" font-family="Inter, Arial, sans-serif" font-size="11.00">create forecast_runs + forecast_jobs</text>
<text xml:space="preserve" text-anchor="middle" x="1100.33" y="-251.04" font-family="Inter, Arial, sans-serif" font-size="11.00">claim jobs in parallel</text>
</g>
<!-- panel_db&#45;&gt;queue -->
<g id="edge6" class="edge">
<title>panel_db&#45;&gt;queue</title>
<path fill="none" stroke="#555555" d="M754.47,-456.06C781.03,-450.27 817.64,-441.13 848.56,-429.24 909.69,-405.72 924.14,-396.55 979.31,-361.24 1008.08,-342.82 1038.48,-319.22 1061.48,-300.4"/>
<polygon fill="#555555" stroke="#555555" points="1063.08,-302.48 1067.21,-295.69 1059.75,-298.43 1063.08,-302.48"/>
</g>
<!-- config_db&#45;&gt;queue -->
<g id="edge7" class="edge">
<title>config_db&#45;&gt;queue</title>
<path fill="none" stroke="#555555" d="M751.47,-387.15C777.93,-380.59 815.77,-370.89 848.56,-361.24 907.24,-343.96 921.98,-339.57 979.31,-318.24 995.94,-312.05 1013.68,-304.94 1030.28,-298.07"/>
<polygon fill="#555555" stroke="#555555" points="1031.01,-300.61 1036.93,-295.3 1028.99,-295.76 1031.01,-300.61"/>
</g>
<!-- trigger -->
<g id="node6" class="node">
<title>trigger</title>
<path fill="#f7f7f7" stroke="#555555" d="M759.83,-261.25C759.83,-261.25 674.3,-261.25 674.3,-261.25 668.3,-261.25 662.3,-255.25 662.3,-249.25 662.3,-249.25 662.3,-221.23 662.3,-221.23 662.3,-215.23 668.3,-209.23 674.3,-209.23 674.3,-209.23 759.83,-209.23 759.83,-209.23 765.83,-209.23 771.83,-215.23 771.83,-221.23 771.83,-221.23 771.83,-249.25 771.83,-249.25 771.83,-255.25 765.83,-261.25 759.83,-261.25"/>
<text xml:space="preserve" text-anchor="middle" x="717.06" y="-245.04" font-family="Inter, Arial, sans-serif" font-size="11.00">Run trigger</text>
<text xml:space="preserve" text-anchor="middle" x="717.06" y="-231.54" font-family="Inter, Arial, sans-serif" font-size="11.00">Dashboard, CLI, or</text>
<text xml:space="preserve" text-anchor="middle" x="717.06" y="-218.04" font-family="Inter, Arial, sans-serif" font-size="11.00">Ofelia schedule</text>
</g>
<!-- trigger&#45;&gt;queue -->
<g id="edge5" class="edge">
<title>trigger&#45;&gt;queue</title>
<path fill="none" stroke="#555555" d="M772.28,-239.93C830.17,-244.94 923.29,-253 995.38,-259.24"/>
<polygon fill="#555555" stroke="#555555" points="994.86,-261.83 1002.56,-259.86 995.32,-256.6 994.86,-261.83"/>
</g>
<!-- decision -->
<g id="node8" class="node">
<title>decision</title>
<path fill="#eef6ff" stroke="#4f83cc" d="M1446.49,-91.85C1446.49,-91.85 1357.41,-61.15 1357.41,-61.15 1351.73,-59.19 1351.73,-55.28 1357.41,-53.33 1357.41,-53.33 1446.49,-22.63 1446.49,-22.63 1452.17,-20.67 1463.51,-20.67 1469.19,-22.63 1469.19,-22.63 1558.27,-53.33 1558.27,-53.33 1563.95,-55.28 1563.95,-59.19 1558.27,-61.15 1558.27,-61.15 1469.19,-91.85 1469.19,-91.85 1463.51,-93.8 1452.17,-93.8 1446.49,-91.85"/>
<text xml:space="preserve" text-anchor="middle" x="1457.84" y="-60.29" font-family="Inter, Arial, sans-serif" font-size="11.00">Prior completed run</text>
<text xml:space="preserve" text-anchor="middle" x="1457.84" y="-46.79" font-family="Inter, Arial, sans-serif" font-size="11.00">and no drift?</text>
</g>
<!-- queue&#45;&gt;decision -->
<g id="edge8" class="edge">
<title>queue&#45;&gt;decision</title>
<path fill="none" stroke="#555555" d="M1145.99,-241.73C1213.02,-201.95 1339.11,-127.11 1408.32,-86.03"/>
<polygon fill="#555555" stroke="#555555" points="1409.25,-88.54 1414.36,-82.45 1406.57,-84.02 1409.25,-88.54"/>
</g>
<!-- run_tables -->
<g id="node14" class="node">
<title>run_tables</title>
<path fill="#fff4db" stroke="#b7791f" d="M1524.23,-251.91C1524.23,-254.56 1494.47,-256.72 1457.84,-256.72 1421.21,-256.72 1391.45,-254.56 1391.45,-251.91 1391.45,-251.91 1391.45,-208.57 1391.45,-208.57 1391.45,-205.91 1421.21,-203.76 1457.84,-203.76 1494.47,-203.76 1524.23,-205.91 1524.23,-208.57 1524.23,-208.57 1524.23,-251.91 1524.23,-251.91"/>
<path fill="none" stroke="#b7791f" d="M1524.23,-251.91C1524.23,-249.25 1494.47,-247.09 1457.84,-247.09 1421.21,-247.09 1391.45,-249.25 1391.45,-251.91"/>
<text xml:space="preserve" text-anchor="middle" x="1457.84" y="-233.29" font-family="Inter, Arial, sans-serif" font-size="11.00">sku_runs, combinations,</text>
<text xml:space="preserve" text-anchor="middle" x="1457.84" y="-219.79" font-family="Inter, Arial, sans-serif" font-size="11.00">models, exog_selection</text>
</g>
<!-- queue&#45;&gt;run_tables -->
<g id="edge18" class="edge">
<title>queue&#45;&gt;run_tables</title>
<path fill="none" stroke="#555555" d="M1196.79,-248.82C1205.08,-247.48 1213.34,-246.25 1221.34,-245.24 1274.98,-238.42 1335.92,-234.64 1382.36,-232.59"/>
<polygon fill="#555555" stroke="#555555" points="1382.26,-235.22 1389.64,-232.27 1382.04,-229.97 1382.26,-235.22"/>
<text xml:space="preserve" text-anchor="middle" x="1265.22" y="-247.74" font-family="Inter, Arial, sans-serif" font-size="10.00">transactional persist</text>
</g>
<!-- prediction_tables -->
<g id="node15" class="node">
<title>prediction_tables</title>
<path fill="#fff4db" stroke="#b7791f" d="M1528.73,-336.91C1528.73,-339.56 1496.96,-341.72 1457.84,-341.72 1418.72,-341.72 1386.95,-339.56 1386.95,-336.91 1386.95,-336.91 1386.95,-293.57 1386.95,-293.57 1386.95,-290.91 1418.72,-288.76 1457.84,-288.76 1496.96,-288.76 1528.73,-290.91 1528.73,-293.57 1528.73,-293.57 1528.73,-336.91 1528.73,-336.91"/>
<path fill="none" stroke="#b7791f" d="M1528.73,-336.91C1528.73,-334.25 1496.96,-332.09 1457.84,-332.09 1418.72,-332.09 1386.95,-334.25 1386.95,-336.91"/>
<text xml:space="preserve" text-anchor="middle" x="1457.84" y="-318.29" font-family="Inter, Arial, sans-serif" font-size="11.00">sku_run_predictions</text>
<text xml:space="preserve" text-anchor="middle" x="1457.84" y="-304.79" font-family="Inter, Arial, sans-serif" font-size="11.00">sku_run_recommendation</text>
</g>
<!-- queue&#45;&gt;prediction_tables -->
<g id="edge19" class="edge">
<title>queue&#45;&gt;prediction_tables</title>
<path fill="none" stroke="#555555" d="M1196.6,-280.83C1253.29,-288.33 1324.37,-297.73 1377.92,-304.8"/>
<polygon fill="#555555" stroke="#555555" points="1377.41,-307.39 1385.19,-305.77 1378.1,-302.18 1377.41,-307.39"/>
<text xml:space="preserve" text-anchor="middle" x="1265.22" y="-297.05" font-family="Inter, Arial, sans-serif" font-size="10.00">transactional persist</text>
</g>
<!-- cold -->
<g id="node9" class="node">
<title>cold</title>
<path fill="#f7f7f7" stroke="#555555" d="M406.44,-74.25C406.44,-74.25 288.66,-74.25 288.66,-74.25 282.66,-74.25 276.66,-68.25 276.66,-62.25 276.66,-62.25 276.66,-34.23 276.66,-34.23 276.66,-28.23 282.66,-22.23 288.66,-22.23 288.66,-22.23 406.44,-22.23 406.44,-22.23 412.44,-22.23 418.44,-28.23 418.44,-34.23 418.44,-34.23 418.44,-62.25 418.44,-62.25 418.44,-68.25 412.44,-74.25 406.44,-74.25"/>
<text xml:space="preserve" text-anchor="middle" x="347.55" y="-58.04" font-family="Inter, Arial, sans-serif" font-size="11.00">Cold path</text>
<text xml:space="preserve" text-anchor="middle" x="347.55" y="-44.54" font-family="Inter, Arial, sans-serif" font-size="11.00">ROCV + EXOG selection</text>
<text xml:space="preserve" text-anchor="middle" x="347.55" y="-31.04" font-family="Inter, Arial, sans-serif" font-size="11.00">RF/XGB training + REFIT</text>
</g>
<!-- decision&#45;&gt;cold -->
<g id="edge9" class="edge">
<title>decision&#45;&gt;cold</title>
<path fill="none" stroke="#555555" d="M1384.13,-43.66C1360.28,-39.55 1333.61,-35.31 1309.09,-32.24 935.77,14.54 836.82,6.26 462.56,-32.24 451.23,-33.4 439.3,-34.84 427.59,-36.38"/>
<polygon fill="#555555" stroke="#555555" points="427.28,-33.77 420.19,-37.36 427.98,-38.97 427.28,-33.77"/>
<text xml:space="preserve" text-anchor="middle" x="926.44" y="-3.98" font-family="Inter, Arial, sans-serif" font-size="10.00">no / drift</text>
</g>
<!-- warm -->
<g id="node10" class="node">
<title>warm</title>
<path fill="#f7f7f7" stroke="#555555" d="M425.56,-158.25C425.56,-158.25 269.53,-158.25 269.53,-158.25 263.53,-158.25 257.53,-152.25 257.53,-146.25 257.53,-146.25 257.53,-118.23 257.53,-118.23 257.53,-112.23 263.53,-106.23 269.53,-106.23 269.53,-106.23 425.56,-106.23 425.56,-106.23 431.56,-106.23 437.56,-112.23 437.56,-118.23 437.56,-118.23 437.56,-146.25 437.56,-146.25 437.56,-152.25 431.56,-158.25 425.56,-158.25"/>
<text xml:space="preserve" text-anchor="middle" x="347.55" y="-142.04" font-family="Inter, Arial, sans-serif" font-size="11.00">Warm path</text>
<text xml:space="preserve" text-anchor="middle" x="347.55" y="-128.54" font-family="Inter, Arial, sans-serif" font-size="11.00">reuse cached winner</text>
<text xml:space="preserve" text-anchor="middle" x="347.55" y="-115.04" font-family="Inter, Arial, sans-serif" font-size="11.00">refit with cached hyperparameters</text>
</g>
<!-- decision&#45;&gt;warm -->
<g id="edge10" class="edge">
<title>decision&#45;&gt;warm</title>
<path fill="none" stroke="#555555" d="M1346.59,-56.6C1181.06,-56.73 858.69,-61.21 586.56,-90.24 540.3,-95.17 489.47,-103.71 446.71,-111.8"/>
<polygon fill="#555555" stroke="#555555" points="446.35,-109.2 439.47,-113.19 447.33,-114.36 446.35,-109.2"/>
<text xml:space="preserve" text-anchor="middle" x="926.44" y="-70.49" font-family="Inter, Arial, sans-serif" font-size="10.00">yes</text>
</g>
<!-- forecast -->
<g id="node11" class="node">
<title>forecast</title>
<path fill="#f7f7f7" stroke="#555555" d="M762.08,-158.25C762.08,-158.25 672.05,-158.25 672.05,-158.25 666.05,-158.25 660.05,-152.25 660.05,-146.25 660.05,-146.25 660.05,-118.23 660.05,-118.23 660.05,-112.23 666.05,-106.23 672.05,-106.23 672.05,-106.23 762.08,-106.23 762.08,-106.23 768.08,-106.23 774.08,-112.23 774.08,-118.23 774.08,-118.23 774.08,-146.25 774.08,-146.25 774.08,-152.25 768.08,-158.25 762.08,-158.25"/>
<text xml:space="preserve" text-anchor="middle" x="717.06" y="-142.04" font-family="Inter, Arial, sans-serif" font-size="11.00">Recursive forecast</text>
<text xml:space="preserve" text-anchor="middle" x="717.06" y="-128.54" font-family="Inter, Arial, sans-serif" font-size="11.00">3m / 6m horizons</text>
<text xml:space="preserve" text-anchor="middle" x="717.06" y="-115.04" font-family="Inter, Arial, sans-serif" font-size="11.00">PI80 / PI95 intervals</text>
</g>
<!-- cold&#45;&gt;forecast -->
<g id="edge11" class="edge">
<title>cold&#45;&gt;forecast</title>
<path fill="none" stroke="#555555" d="M418.54,-64.24C485.51,-79.54 585.71,-102.45 650.99,-117.37"/>
<polygon fill="#555555" stroke="#555555" points="650.19,-119.88 658.09,-118.99 651.36,-114.76 650.19,-119.88"/>
</g>
<!-- models -->
<g id="node13" class="node">
<title>models</title>
<path fill="#fff4db" stroke="#b7791f" d="M778.58,-340.91C778.58,-343.56 751,-345.72 717.06,-345.72 683.12,-345.72 655.55,-343.56 655.55,-340.91 655.55,-340.91 655.55,-297.57 655.55,-297.57 655.55,-294.91 683.12,-292.76 717.06,-292.76 751,-292.76 778.58,-294.91 778.58,-297.57 778.58,-297.57 778.58,-340.91 778.58,-340.91"/>
<path fill="none" stroke="#b7791f" d="M778.58,-340.91C778.58,-338.25 751,-336.09 717.06,-336.09 683.12,-336.09 655.55,-338.25 655.55,-340.91"/>
<text xml:space="preserve" text-anchor="middle" x="717.06" y="-322.29" font-family="Inter, Arial, sans-serif" font-size="11.00">models_data volume</text>
<text xml:space="preserve" text-anchor="middle" x="717.06" y="-308.79" font-family="Inter, Arial, sans-serif" font-size="11.00">serialized model blobs</text>
</g>
<!-- cold&#45;&gt;models -->
<g id="edge14" class="edge">
<title>cold&#45;&gt;models</title>
<path fill="none" stroke="#555555" d="M411.97,-74.59C420.87,-79.3 429.66,-84.54 437.56,-90.24 502.32,-136.95 517.3,-153.78 561.56,-220.24 576.89,-243.26 566.05,-258.68 586.56,-277.24 603.27,-292.36 625.49,-302.04 646.81,-308.24"/>
<polygon fill="#555555" stroke="#555555" points="645.85,-310.7 653.77,-310.13 647.23,-305.63 645.85,-310.7"/>
<text xml:space="preserve" text-anchor="middle" x="512.06" y="-222.74" font-family="Inter, Arial, sans-serif" font-size="10.00">save models</text>
</g>
<!-- warm&#45;&gt;forecast -->
<g id="edge12" class="edge">
<title>warm&#45;&gt;forecast</title>
<path fill="none" stroke="#555555" d="M437.98,-132.24C503.76,-132.24 591.67,-132.24 650.89,-132.24"/>
<polygon fill="#555555" stroke="#555555" points="650.77,-134.86 658.26,-132.24 650.76,-129.61 650.77,-134.86"/>
</g>
<!-- warm&#45;&gt;models -->
<g id="edge15" class="edge">
<title>warm&#45;&gt;models</title>
<path fill="none" stroke="#555555" d="M369.94,-158.49C391.12,-182.87 425.63,-218.59 462.56,-240.24 520.1,-273.97 593.58,-294.81 646.6,-306.55"/>
<polygon fill="#555555" stroke="#555555" points="645.89,-309.08 653.78,-308.11 647.01,-303.95 645.89,-309.08"/>
<text xml:space="preserve" text-anchor="middle" x="512.06" y="-283.84" font-family="Inter, Arial, sans-serif" font-size="10.00">save refreshed models</text>
</g>
<!-- oms -->
<g id="node12" class="node">
<title>oms</title>
<path fill="#f7f7f7" stroke="#555555" d="M1164.09,-158.25C1164.09,-158.25 1036.56,-158.25 1036.56,-158.25 1030.56,-158.25 1024.56,-152.25 1024.56,-146.25 1024.56,-146.25 1024.56,-118.23 1024.56,-118.23 1024.56,-112.23 1030.56,-106.23 1036.56,-106.23 1036.56,-106.23 1164.09,-106.23 1164.09,-106.23 1170.09,-106.23 1176.09,-112.23 1176.09,-118.23 1176.09,-118.23 1176.09,-146.25 1176.09,-146.25 1176.09,-152.25 1170.09,-158.25 1164.09,-158.25"/>
<text xml:space="preserve" text-anchor="middle" x="1100.33" y="-142.04" font-family="Inter, Arial, sans-serif" font-size="11.00">OMS policy</text>
<text xml:space="preserve" text-anchor="middle" x="1100.33" y="-128.54" font-family="Inter, Arial, sans-serif" font-size="11.00">stockout probability</text>
<text xml:space="preserve" text-anchor="middle" x="1100.33" y="-115.04" font-family="Inter, Arial, sans-serif" font-size="11.00">MOQ / lot rounded order qty</text>
</g>
<!-- forecast&#45;&gt;oms -->
<g id="edge13" class="edge">
<title>forecast&#45;&gt;oms</title>
<path fill="none" stroke="#555555" d="M774.32,-132.24C837.91,-132.24 942.1,-132.24 1015.34,-132.24"/>
<polygon fill="#555555" stroke="#555555" points="1015.1,-134.86 1022.6,-132.24 1015.1,-129.61 1015.1,-134.86"/>
</g>
<!-- oms&#45;&gt;queue -->
<g id="edge17" class="edge">
<title>oms&#45;&gt;queue</title>
<path fill="none" stroke="#555555" d="M1100.33,-158.46C1100.33,-179.72 1100.33,-209.88 1100.33,-233.2"/>
<polygon fill="#555555" stroke="#555555" points="1097.7,-233.08 1100.33,-240.58 1102.95,-233.08 1097.7,-233.08"/>
<text xml:space="preserve" text-anchor="middle" x="1091.33" y="-196.74" font-family="Inter, Arial, sans-serif" font-size="10.00">ForecastResult JSON</text>
</g>
<!-- models&#45;&gt;queue -->
<g id="edge16" class="edge">
<title>models&#45;&gt;queue</title>
<path fill="none" stroke="#555555" d="M778.89,-311.1C837.06,-303.32 925.93,-291.43 995.33,-282.15"/>
<polygon fill="#555555" stroke="#555555" points="995.54,-284.77 1002.63,-281.17 994.85,-279.57 995.54,-284.77"/>
<text xml:space="preserve" text-anchor="middle" x="926.44" y="-300.81" font-family="Inter, Arial, sans-serif" font-size="10.00">cached specs and blobs</text>
</g>
<!-- dashboard -->
<g id="node16" class="node">
<title>dashboard</title>
<path fill="#f5f0ff" stroke="#805ad5" d="M1761.87,-347.25C1761.87,-347.25 1660.59,-347.25 1660.59,-347.25 1654.59,-347.25 1648.59,-341.25 1648.59,-335.25 1648.59,-335.25 1648.59,-307.23 1648.59,-307.23 1648.59,-301.23 1654.59,-295.23 1660.59,-295.23 1660.59,-295.23 1761.87,-295.23 1761.87,-295.23 1767.87,-295.23 1773.87,-301.23 1773.87,-307.23 1773.87,-307.23 1773.87,-335.25 1773.87,-335.25 1773.87,-341.25 1767.87,-347.25 1761.87,-347.25"/>
<text xml:space="preserve" text-anchor="middle" x="1711.23" y="-331.04" font-family="Inter, Arial, sans-serif" font-size="11.00">React dashboard</text>
<text xml:space="preserve" text-anchor="middle" x="1711.23" y="-317.54" font-family="Inter, Arial, sans-serif" font-size="11.00">SKU detail, run status,</text>
<text xml:space="preserve" text-anchor="middle" x="1711.23" y="-304.04" font-family="Inter, Arial, sans-serif" font-size="11.00">order cart CSV</text>
</g>
<!-- run_tables&#45;&gt;dashboard -->
<g id="edge20" class="edge">
<title>run_tables&#45;&gt;dashboard</title>
<path fill="none" stroke="#555555" d="M1524.46,-252.69C1543.26,-259.22 1563.77,-266.43 1582.59,-273.24 1601.22,-279.98 1621.31,-287.44 1639.91,-294.43"/>
<polygon fill="#555555" stroke="#555555" points="1638.99,-296.89 1646.93,-297.07 1640.84,-291.97 1638.99,-296.89"/>
</g>
<!-- grafana -->
<g id="node17" class="node">
<title>grafana</title>
<path fill="#f5f0ff" stroke="#805ad5" d="M1776.87,-253.5C1776.87,-253.5 1645.59,-253.5 1645.59,-253.5 1639.59,-253.5 1633.59,-247.5 1633.59,-241.5 1633.59,-241.5 1633.59,-226.98 1633.59,-226.98 1633.59,-220.98 1639.59,-214.98 1645.59,-214.98 1645.59,-214.98 1776.87,-214.98 1776.87,-214.98 1782.87,-214.98 1788.87,-220.98 1788.87,-226.98 1788.87,-226.98 1788.87,-241.5 1788.87,-241.5 1788.87,-247.5 1782.87,-253.5 1776.87,-253.5"/>
<text xml:space="preserve" text-anchor="middle" x="1711.23" y="-237.29" font-family="Inter, Arial, sans-serif" font-size="11.00">Grafana dashboards</text>
<text xml:space="preserve" text-anchor="middle" x="1711.23" y="-223.79" font-family="Inter, Arial, sans-serif" font-size="11.00">portfolio KPIs and model ops</text>
</g>
<!-- run_tables&#45;&gt;grafana -->
<g id="edge22" class="edge">
<title>run_tables&#45;&gt;grafana</title>
<path fill="none" stroke="#555555" d="M1524.56,-231.28C1555.14,-231.77 1591.91,-232.36 1624.63,-232.88"/>
<polygon fill="#555555" stroke="#555555" points="1624.24,-235.5 1631.78,-232.99 1624.33,-230.25 1624.24,-235.5"/>
</g>
<!-- prediction_tables&#45;&gt;dashboard -->
<g id="edge21" class="edge">
<title>prediction_tables&#45;&gt;dashboard</title>
<path fill="none" stroke="#555555" d="M1529.2,-316.92C1563.75,-317.74 1605.26,-318.73 1639.82,-319.56"/>
<polygon fill="#555555" stroke="#555555" points="1639.37,-322.17 1646.93,-319.73 1639.5,-316.92 1639.37,-322.17"/>
</g>
<!-- prediction_tables&#45;&gt;grafana -->
<g id="edge23" class="edge">
<title>prediction_tables&#45;&gt;grafana</title>
<path fill="none" stroke="#555555" d="M1529.2,-292.57C1564.16,-281.3 1606.26,-267.74 1641.06,-256.52"/>
<polygon fill="#555555" stroke="#555555" points="1641.51,-259.14 1647.84,-254.34 1639.9,-254.14 1641.51,-259.14"/>
</g>
</g>
</svg>
