<?xml version="1.0" encoding="UTF-8" standalone="no"?>
<!DOCTYPE svg PUBLIC "-//W3C//DTD SVG 1.1//EN"
 "http://www.w3.org/Graphics/SVG/1.1/DTD/svg11.dtd">
<!-- Generated by graphviz version 14.1.5 (0)
 -->
<!-- Title: service_topology Pages: 1 -->
<svg width="1518pt" height="753pt"
 viewBox="0.00 0.00 1518.00 753.00" xmlns="http://www.w3.org/2000/svg" xmlns:xlink="http://www.w3.org/1999/xlink">
<g id="graph0" class="graph" transform="scale(1 1) rotate(0) translate(28.8 723.8)">
<title>service_topology</title>
<polygon fill="white" stroke="none" points="-28.8,28.8 -28.8,-723.8 1489.55,-723.8 1489.55,28.8 -28.8,28.8"/>
<text xml:space="preserve" text-anchor="middle" x="730.37" y="-668.2" font-family="Inter, Arial, sans-serif" font-size="24.00">Service Topology</text>
<g id="clust1" class="cluster">
<title>cluster_frontend</title>
<path fill="#f8fafc" stroke="#cbd5e1" d="M240.03,-488C240.03,-488 340.81,-488 340.81,-488 346.81,-488 352.81,-494 352.81,-500 352.81,-500 352.81,-581 352.81,-581 352.81,-587 346.81,-593 340.81,-593 340.81,-593 240.03,-593 240.03,-593 234.03,-593 228.03,-587 228.03,-581 228.03,-581 228.03,-500 228.03,-500 228.03,-494 234.03,-488 240.03,-488"/>
<text xml:space="preserve" text-anchor="middle" x="290.42" y="-566.2" font-family="Inter, Arial, sans-serif" font-size="24.00">Frontend</text>
</g>
<g id="clust2" class="cluster">
<title>cluster_app</title>
<path fill="#f8fafc" stroke="#cbd5e1" d="M231.78,-258C231.78,-258 1072.61,-258 1072.61,-258 1078.61,-258 1084.61,-264 1084.61,-270 1084.61,-270 1084.61,-430 1084.61,-430 1084.61,-436 1078.61,-442 1072.61,-442 1072.61,-442 231.78,-442 231.78,-442 225.78,-442 219.78,-436 219.78,-430 219.78,-430 219.78,-270 219.78,-270 219.78,-264 225.78,-258 231.78,-258"/>
<text xml:space="preserve" text-anchor="middle" x="652.19" y="-415.2" font-family="Inter, Arial, sans-serif" font-size="24.00">Application services</text>
</g>
<g id="clust3" class="cluster">
<title>cluster_storage</title>
<path fill="#fffbeb" stroke="#d6bc8a" d="M1293.47,-228C1293.47,-228 1440.75,-228 1440.75,-228 1446.75,-228 1452.75,-234 1452.75,-240 1452.75,-240 1452.75,-552 1452.75,-552 1452.75,-558 1446.75,-564 1440.75,-564 1440.75,-564 1293.47,-564 1293.47,-564 1287.47,-564 1281.47,-558 1281.47,-552 1281.47,-552 1281.47,-240 1281.47,-240 1281.47,-234 1287.47,-228 1293.47,-228"/>
<text xml:space="preserve" text-anchor="middle" x="1367.11" y="-537.2" font-family="Inter, Arial, sans-serif" font-size="24.00">Storage</text>
</g>
<g id="clust4" class="cluster">
<title>cluster_ops</title>
<path fill="#faf5ff" stroke="#c4b5fd" d="M869.22,-481C869.22,-481 1129.72,-481 1129.72,-481 1135.72,-481 1141.72,-487 1141.72,-493 1141.72,-493 1141.72,-640 1141.72,-640 1141.72,-646 1135.72,-652 1129.72,-652 1129.72,-652 869.22,-652 869.22,-652 863.22,-652 857.22,-646 857.22,-640 857.22,-640 857.22,-493 857.22,-493 857.22,-487 863.22,-481 869.22,-481"/>
<text xml:space="preserve" text-anchor="middle" x="999.47" y="-625.2" font-family="Inter, Arial, sans-serif" font-size="24.00">Operations and reporting</text>
</g>
<g id="clust5" class="cluster">
<title>cluster_inputs</title>
<path fill="#f0fff4" stroke="#9ae6b4" d="M527.06,-8C527.06,-8 1065.48,-8 1065.48,-8 1071.48,-8 1077.48,-14 1077.48,-20 1077.48,-20 1077.48,-167 1077.48,-167 1077.48,-173 1071.48,-179 1065.48,-179 1065.48,-179 527.06,-179 527.06,-179 521.06,-179 515.06,-173 515.06,-167 515.06,-167 515.06,-20 515.06,-20 515.06,-14 521.06,-8 527.06,-8"/>
<text xml:space="preserve" text-anchor="middle" x="796.27" y="-152.2" font-family="Inter, Arial, sans-serif" font-size="24.00">Seed inputs</text>
</g>
<!-- browser -->
<g id="node1" class="node">
<title>browser</title>
<path fill="#eef6ff" stroke="#4f83cc" d="M132.78,-541C132.78,-541 12,-541 12,-541 6,-541 0,-535 0,-529 0,-529 0,-517 0,-517 0,-511 6,-505 12,-505 12,-505 132.78,-505 132.78,-505 138.78,-505 144.78,-511 144.78,-517 144.78,-517 144.78,-529 144.78,-529 144.78,-535 138.78,-541 132.78,-541"/>
<text xml:space="preserve" text-anchor="middle" x="72.39" y="-518.73" font-family="Inter, Arial, sans-serif" font-size="12.00">Admin / analyst browser</text>
</g>
<!-- dashboard -->
<g id="node2" class="node">
<title>dashboard</title>
<path fill="#f7f7f7" stroke="#555555" d="M332.81,-550.13C332.81,-550.13 248.03,-550.13 248.03,-550.13 242.03,-550.13 236.03,-544.13 236.03,-538.13 236.03,-538.13 236.03,-507.87 236.03,-507.87 236.03,-501.87 242.03,-495.87 248.03,-495.87 248.03,-495.87 332.81,-495.87 332.81,-495.87 338.81,-495.87 344.81,-501.87 344.81,-507.87 344.81,-507.87 344.81,-538.13 344.81,-538.13 344.81,-544.13 338.81,-550.13 332.81,-550.13"/>
<text xml:space="preserve" text-anchor="middle" x="290.42" y="-532.98" font-family="Inter, Arial, sans-serif" font-size="12.00">React dashboard</text>
<text xml:space="preserve" text-anchor="middle" x="290.42" y="-518.73" font-family="Inter, Arial, sans-serif" font-size="12.00">nginx container</text>
<text xml:space="preserve" text-anchor="middle" x="290.42" y="-504.48" font-family="Inter, Arial, sans-serif" font-size="12.00">localhost:8081</text>
</g>
<!-- browser&#45;&gt;dashboard -->
<g id="edge1" class="edge">
<title>browser&#45;&gt;dashboard</title>
<path fill="none" stroke="#555555" d="M145.02,-523C171.5,-523 201.28,-523 226.89,-523"/>
<polygon fill="#555555" stroke="#555555" points="226.75,-525.63 234.25,-523 226.75,-520.38 226.75,-525.63"/>
<text xml:space="preserve" text-anchor="middle" x="186.28" y="-525.5" font-family="Inter, Arial, sans-serif" font-size="10.00">uses</text>
</g>
<!-- controller -->
<g id="node3" class="node">
<title>controller</title>
<path fill="#f7f7f7" stroke="#555555" d="M676.84,-399.13C676.84,-399.13 547.81,-399.13 547.81,-399.13 541.81,-399.13 535.81,-393.13 535.81,-387.13 535.81,-387.13 535.81,-356.87 535.81,-356.87 535.81,-350.87 541.81,-344.87 547.81,-344.87 547.81,-344.87 676.84,-344.87 676.84,-344.87 682.84,-344.87 688.84,-350.87 688.84,-356.87 688.84,-356.87 688.84,-387.13 688.84,-387.13 688.84,-393.13 682.84,-399.13 676.84,-399.13"/>
<text xml:space="preserve" text-anchor="middle" x="612.33" y="-381.98" font-family="Inter, Arial, sans-serif" font-size="12.00">Rust controller REST API</text>
<text xml:space="preserve" text-anchor="middle" x="612.33" y="-367.73" font-family="Inter, Arial, sans-serif" font-size="12.00">Actix Web :9000</text>
<text xml:space="preserve" text-anchor="middle" x="612.33" y="-353.48" font-family="Inter, Arial, sans-serif" font-size="12.00">run queue + orchestration</text>
</g>
<!-- dashboard&#45;&gt;controller -->
<g id="edge2" class="edge">
<title>dashboard&#45;&gt;controller</title>
<path fill="none" stroke="#555555" d="M344.96,-497.73C400.03,-471.73 485.9,-431.2 545.18,-403.22"/>
<polygon fill="#555555" stroke="#555555" points="545.97,-405.75 551.63,-400.18 543.72,-401.01 545.97,-405.75"/>
<text xml:space="preserve" text-anchor="middle" x="438.06" y="-492.88" font-family="Inter, Arial, sans-serif" font-size="10.00">REST JSON</text>
<text xml:space="preserve" text-anchor="middle" x="438.06" y="-480.88" font-family="Inter, Arial, sans-serif" font-size="10.00">/runs, /skus, /predictions</text>
</g>
<!-- grafana -->
<g id="node9" class="node">
<title>grafana</title>
<path fill="#f5f0ff" stroke="#805ad5" d="M1059.73,-609.01C1059.73,-609.01 938.2,-609.01 938.2,-609.01 932.2,-609.01 926.2,-603.01 926.2,-597.01 926.2,-597.01 926.2,-580.99 926.2,-580.99 926.2,-574.99 932.2,-568.99 938.2,-568.99 938.2,-568.99 1059.73,-568.99 1059.73,-568.99 1065.73,-568.99 1071.73,-574.99 1071.73,-580.99 1071.73,-580.99 1071.73,-597.01 1071.73,-597.01 1071.73,-603.01 1065.73,-609.01 1059.73,-609.01"/>
<text xml:space="preserve" text-anchor="middle" x="998.97" y="-591.85" font-family="Inter, Arial, sans-serif" font-size="12.00">Grafana :3000</text>
<text xml:space="preserve" text-anchor="middle" x="998.97" y="-577.6" font-family="Inter, Arial, sans-serif" font-size="12.00">provisioned dashboards</text>
</g>
<!-- dashboard&#45;&gt;grafana -->
<g id="edge3" class="edge">
<title>dashboard&#45;&gt;grafana</title>
<path fill="none" stroke="#555555" d="M345.11,-528.01C468.12,-539.51 771,-567.8 916.87,-581.42"/>
<polygon fill="#555555" stroke="#555555" points="916.6,-584.04 924.31,-582.12 917.09,-578.81 916.6,-584.04"/>
<text xml:space="preserve" text-anchor="middle" x="612.33" y="-562.89" font-family="Inter, Arial, sans-serif" font-size="10.00">embeds dashboards</text>
</g>
<!-- worker -->
<g id="node4" class="node">
<title>worker</title>
<path fill="#f7f7f7" stroke="#555555" d="M1064.61,-345.13C1064.61,-345.13 933.33,-345.13 933.33,-345.13 927.33,-345.13 921.33,-339.13 921.33,-333.13 921.33,-333.13 921.33,-302.87 921.33,-302.87 921.33,-296.87 927.33,-290.87 933.33,-290.87 933.33,-290.87 1064.61,-290.87 1064.61,-290.87 1070.61,-290.87 1076.61,-296.87 1076.61,-302.87 1076.61,-302.87 1076.61,-333.13 1076.61,-333.13 1076.61,-339.13 1070.61,-345.13 1064.61,-345.13"/>
<text xml:space="preserve" text-anchor="middle" x="998.97" y="-327.98" font-family="Inter, Arial, sans-serif" font-size="12.00">Python forecasting worker</text>
<text xml:space="preserve" text-anchor="middle" x="998.97" y="-313.73" font-family="Inter, Arial, sans-serif" font-size="12.00">FastAPI :8000</text>
<text xml:space="preserve" text-anchor="middle" x="998.97" y="-299.48" font-family="Inter, Arial, sans-serif" font-size="12.00">cold, warm, drift pipelines</text>
</g>
<!-- controller&#45;&gt;worker -->
<g id="edge6" class="edge">
<title>controller&#45;&gt;worker</title>
<path fill="none" stroke="#555555" d="M648.06,-344.47C670.71,-328.33 701.69,-309.5 732.59,-301 791.2,-284.87 859.72,-289.83 912.46,-298.46"/>
<polygon fill="#555555" stroke="#555555" points="911.78,-301 919.62,-299.67 912.66,-295.83 911.78,-301"/>
<text xml:space="preserve" text-anchor="middle" x="780.97" y="-327.5" font-family="Inter, Arial, sans-serif" font-size="10.00">POST /forecast/cold</text>
<text xml:space="preserve" text-anchor="middle" x="780.97" y="-315.5" font-family="Inter, Arial, sans-serif" font-size="10.00">POST /forecast/warm</text>
<text xml:space="preserve" text-anchor="middle" x="780.97" y="-303.5" font-family="Inter, Arial, sans-serif" font-size="10.00">POST /drift/check</text>
</g>
<!-- postgres -->
<g id="node6" class="node">
<title>postgres</title>
<path fill="#fff4db" stroke="#b7791f" d="M1440.25,-321.54C1440.25,-326.27 1407.46,-330.11 1367.11,-330.11 1326.75,-330.11 1293.97,-326.27 1293.97,-321.54 1293.97,-321.54 1293.97,-244.46 1293.97,-244.46 1293.97,-239.73 1326.75,-235.89 1367.11,-235.89 1407.46,-235.89 1440.25,-239.73 1440.25,-244.46 1440.25,-244.46 1440.25,-321.54 1440.25,-321.54"/>
<path fill="none" stroke="#b7791f" d="M1440.25,-321.54C1440.25,-316.82 1407.46,-312.98 1367.11,-312.98 1326.75,-312.98 1293.97,-316.82 1293.97,-321.54"/>
<text xml:space="preserve" text-anchor="middle" x="1367.11" y="-300.1" font-family="Inter, Arial, sans-serif" font-size="12.00">PostgreSQL 16</text>
<text xml:space="preserve" text-anchor="middle" x="1367.11" y="-285.85" font-family="Inter, Arial, sans-serif" font-size="12.00">sales_panel, sku_config</text>
<text xml:space="preserve" text-anchor="middle" x="1367.11" y="-271.6" font-family="Inter, Arial, sans-serif" font-size="12.00">runs, jobs, predictions,</text>
<text xml:space="preserve" text-anchor="middle" x="1367.11" y="-257.35" font-family="Inter, Arial, sans-serif" font-size="12.00">recommendations</text>
</g>
<!-- controller&#45;&gt;postgres -->
<g id="edge5" class="edge">
<title>controller&#45;&gt;postgres</title>
<path fill="none" stroke="#555555" d="M641.96,-344.57C664.83,-324.05 698.58,-296.76 732.59,-280 783.98,-254.67 800.4,-254.4 857.22,-247 982.6,-230.68 1015.67,-236.95 1141.72,-247 1189.55,-250.81 1242.58,-259.13 1285.07,-266.81"/>
<polygon fill="#555555" stroke="#555555" points="1284.36,-269.35 1292.21,-268.11 1285.3,-264.18 1284.36,-269.35"/>
<text xml:space="preserve" text-anchor="middle" x="998.97" y="-261.5" font-family="Inter, Arial, sans-serif" font-size="10.00">reads source data</text>
<text xml:space="preserve" text-anchor="middle" x="998.97" y="-249.5" font-family="Inter, Arial, sans-serif" font-size="10.00">writes run state/results</text>
</g>
<!-- models -->
<g id="node7" class="node">
<title>models</title>
<path fill="#fff4db" stroke="#b7791f" d="M1444.75,-420.51C1444.75,-423.27 1409.95,-425.51 1367.11,-425.51 1324.26,-425.51 1289.47,-423.27 1289.47,-420.51 1289.47,-420.51 1289.47,-375.49 1289.47,-375.49 1289.47,-372.73 1324.26,-370.49 1367.11,-370.49 1409.95,-370.49 1444.75,-372.73 1444.75,-375.49 1444.75,-375.49 1444.75,-420.51 1444.75,-420.51"/>
<path fill="none" stroke="#b7791f" d="M1444.75,-420.51C1444.75,-417.75 1409.95,-415.51 1367.11,-415.51 1324.26,-415.51 1289.47,-417.75 1289.47,-420.51"/>
<text xml:space="preserve" text-anchor="middle" x="1367.11" y="-400.85" font-family="Inter, Arial, sans-serif" font-size="12.00">models_data volume</text>
<text xml:space="preserve" text-anchor="middle" x="1367.11" y="-386.6" font-family="Inter, Arial, sans-serif" font-size="12.00">serialized RF / XGB blobs</text>
</g>
<!-- controller&#45;&gt;models -->
<g id="edge7" class="edge">
<title>controller&#45;&gt;models</title>
<path fill="none" stroke="#555555" d="M689.11,-376.15C795.37,-381.77 994.69,-391.62 1164.72,-396 1202.58,-396.98 1244.45,-397.48 1280.17,-397.75"/>
<polygon fill="#555555" stroke="#555555" points="1280.08,-400.37 1287.6,-397.8 1280.12,-395.12 1280.08,-400.37"/>
<text xml:space="preserve" text-anchor="middle" x="998.97" y="-409.83" font-family="Inter, Arial, sans-serif" font-size="10.00">passes blob_dir</text>
<text xml:space="preserve" text-anchor="middle" x="998.97" y="-397.83" font-family="Inter, Arial, sans-serif" font-size="10.00">reads cached metadata</text>
</g>
<!-- worker&#45;&gt;controller -->
<g id="edge8" class="edge">
<title>worker&#45;&gt;controller</title>
<path fill="none" stroke="#555555" d="M921.19,-329.61C892.39,-333.9 859.38,-338.76 829.34,-343 786.15,-349.1 738.05,-355.59 698.23,-360.88"/>
<polygon fill="#555555" stroke="#555555" points="697.93,-358.27 690.84,-361.86 698.62,-363.47 697.93,-358.27"/>
<text xml:space="preserve" text-anchor="middle" x="780.97" y="-358.52" font-family="Inter, Arial, sans-serif" font-size="10.00">ForecastResult JSON</text>
</g>
<!-- worker&#45;&gt;models -->
<g id="edge9" class="edge">
<title>worker&#45;&gt;models</title>
<path fill="none" stroke="#555555" d="M1076.72,-334.77C1136.3,-347.79 1218.88,-365.83 1280.57,-379.31"/>
<polygon fill="#555555" stroke="#555555" points="1279.77,-381.82 1287.66,-380.86 1280.89,-376.69 1279.77,-381.82"/>
<text xml:space="preserve" text-anchor="middle" x="1211.59" y="-376.86" font-family="Inter, Arial, sans-serif" font-size="10.00">writes model artifacts</text>
</g>
<!-- scheduler -->
<g id="node5" class="node">
<title>scheduler</title>
<path fill="#f7f7f7" stroke="#555555" d="M341.06,-392.01C341.06,-392.01 239.78,-392.01 239.78,-392.01 233.78,-392.01 227.78,-386.01 227.78,-380.01 227.78,-380.01 227.78,-363.99 227.78,-363.99 227.78,-357.99 233.78,-351.99 239.78,-351.99 239.78,-351.99 341.06,-351.99 341.06,-351.99 347.06,-351.99 353.06,-357.99 353.06,-363.99 353.06,-363.99 353.06,-380.01 353.06,-380.01 353.06,-386.01 347.06,-392.01 341.06,-392.01"/>
<text xml:space="preserve" text-anchor="middle" x="290.42" y="-374.85" font-family="Inter, Arial, sans-serif" font-size="12.00">Ofelia scheduler</text>
<text xml:space="preserve" text-anchor="middle" x="290.42" y="-360.6" font-family="Inter, Arial, sans-serif" font-size="12.00">monthly portfolio run</text>
</g>
<!-- scheduler&#45;&gt;controller -->
<g id="edge4" class="edge">
<title>scheduler&#45;&gt;controller</title>
<path fill="none" stroke="#555555" d="M353.48,-372C402.71,-372 472.03,-372 526.4,-372"/>
<polygon fill="#555555" stroke="#555555" points="526.32,-374.63 533.82,-372 526.32,-369.38 526.32,-374.63"/>
<text xml:space="preserve" text-anchor="middle" x="438.06" y="-386.5" font-family="Inter, Arial, sans-serif" font-size="10.00">POST /runs</text>
<text xml:space="preserve" text-anchor="middle" x="438.06" y="-374.5" font-family="Inter, Arial, sans-serif" font-size="10.00">monthly trigger</text>
</g>
<!-- grafana_data -->
<g id="node8" class="node">
<title>grafana_data</title>
<path fill="#fff4db" stroke="#b7791f" d="M1432,-515.51C1432,-518.27 1402.91,-520.51 1367.11,-520.51 1331.3,-520.51 1302.22,-518.27 1302.22,-515.51 1302.22,-515.51 1302.22,-470.49 1302.22,-470.49 1302.22,-467.73 1331.3,-465.49 1367.11,-465.49 1402.91,-465.49 1432,-467.73 1432,-470.49 1432,-470.49 1432,-515.51 1432,-515.51"/>
<path fill="none" stroke="#b7791f" d="M1432,-515.51C1432,-512.75 1402.91,-510.51 1367.11,-510.51 1331.3,-510.51 1302.22,-512.75 1302.22,-515.51"/>
<text xml:space="preserve" text-anchor="middle" x="1367.11" y="-495.85" font-family="Inter, Arial, sans-serif" font-size="12.00">grafana_data volume</text>
<text xml:space="preserve" text-anchor="middle" x="1367.11" y="-481.6" font-family="Inter, Arial, sans-serif" font-size="12.00">Grafana state</text>
</g>
<!-- grafana&#45;&gt;postgres -->
<g id="edge10" class="edge">
<title>grafana&#45;&gt;postgres</title>
<path fill="none" stroke="#555555" d="M1071.98,-578.1C1095.62,-572.16 1121.1,-563.02 1141.72,-549 1212.46,-500.91 1213.19,-468.57 1258.47,-396 1270.56,-376.61 1267.05,-367.74 1281.47,-350 1286.05,-344.36 1291.19,-338.88 1296.62,-333.66"/>
<polygon fill="#555555" stroke="#555555" points="1298.28,-335.7 1301.99,-328.67 1294.7,-331.85 1298.28,-335.7"/>
<text xml:space="preserve" text-anchor="middle" x="1211.59" y="-532.08" font-family="Inter, Arial, sans-serif" font-size="10.00">SQL dashboards</text>
</g>
<!-- adminer -->
<g id="node10" class="node">
<title>adminer</title>
<path fill="#f5f0ff" stroke="#805ad5" d="M1054.48,-529.01C1054.48,-529.01 943.45,-529.01 943.45,-529.01 937.45,-529.01 931.45,-523.01 931.45,-517.01 931.45,-517.01 931.45,-500.99 931.45,-500.99 931.45,-494.99 937.45,-488.99 943.45,-488.99 943.45,-488.99 1054.48,-488.99 1054.48,-488.99 1060.48,-488.99 1066.48,-494.99 1066.48,-500.99 1066.48,-500.99 1066.48,-517.01 1066.48,-517.01 1066.48,-523.01 1060.48,-529.01 1054.48,-529.01"/>
<text xml:space="preserve" text-anchor="middle" x="998.97" y="-511.85" font-family="Inter, Arial, sans-serif" font-size="12.00">Adminer :8080</text>
<text xml:space="preserve" text-anchor="middle" x="998.97" y="-497.6" font-family="Inter, Arial, sans-serif" font-size="12.00">manual DB inspection</text>
</g>
<!-- adminer&#45;&gt;postgres -->
<g id="edge11" class="edge">
<title>adminer&#45;&gt;postgres</title>
<path fill="none" stroke="#555555" d="M1066.83,-496.7C1093.82,-488.43 1122.96,-474.7 1141.72,-452 1175.75,-410.81 1128,-372.82 1164.72,-334 1195.38,-301.59 1243.43,-288.59 1284.9,-283.82"/>
<polygon fill="#555555" stroke="#555555" points="1284.95,-286.45 1292.14,-283.07 1284.41,-281.23 1284.95,-286.45"/>
<text xml:space="preserve" text-anchor="middle" x="1211.59" y="-336.5" font-family="Inter, Arial, sans-serif" font-size="10.00">manual SQL UI</text>
</g>
<!-- panel_csv -->
<g id="node11" class="node">
<title>panel_csv</title>
<polygon fill="#ecfdf5" stroke="#2f855a" points="695.59,-56.01 523.06,-56.01 523.06,-15.99 701.59,-15.99 701.59,-50.01 695.59,-56.01"/>
<polyline fill="none" stroke="#2f855a" points="695.59,-56.01 695.59,-50.01"/>
<polyline fill="none" stroke="#2f855a" points="701.59,-50.01 695.59,-50.01"/>
<text xml:space="preserve" text-anchor="middle" x="612.33" y="-38.85" font-family="Inter, Arial, sans-serif" font-size="12.00">panel_sales_orders_stock.csv</text>
<text xml:space="preserve" text-anchor="middle" x="612.33" y="-24.6" font-family="Inter, Arial, sans-serif" font-size="12.00">monthly SKU panel</text>
</g>
<!-- seed -->
<g id="node13" class="node">
<title>seed</title>
<path fill="#ecfdf5" stroke="#2f855a" d="M1057.48,-136.01C1057.48,-136.01 940.45,-136.01 940.45,-136.01 934.45,-136.01 928.45,-130.01 928.45,-124.01 928.45,-124.01 928.45,-107.99 928.45,-107.99 928.45,-101.99 934.45,-95.99 940.45,-95.99 940.45,-95.99 1057.48,-95.99 1057.48,-95.99 1063.48,-95.99 1069.48,-101.99 1069.48,-107.99 1069.48,-107.99 1069.48,-124.01 1069.48,-124.01 1069.48,-130.01 1063.48,-136.01 1057.48,-136.01"/>
<text xml:space="preserve" text-anchor="middle" x="998.97" y="-118.85" font-family="Inter, Arial, sans-serif" font-size="12.00">controller seed</text>
<text xml:space="preserve" text-anchor="middle" x="998.97" y="-104.6" font-family="Inter, Arial, sans-serif" font-size="12.00">idempotent CSV import</text>
</g>
<!-- panel_csv&#45;&gt;seed -->
<g id="edge12" class="edge">
<title>panel_csv&#45;&gt;seed</title>
<path fill="none" stroke="#555555" d="M702.05,-54.45C767.74,-68.12 856.41,-86.56 919.52,-99.68"/>
<polygon fill="#555555" stroke="#555555" points="918.89,-102.23 926.76,-101.19 919.96,-97.09 918.89,-102.23"/>
</g>
<!-- config_csv -->
<g id="node12" class="node">
<title>config_csv</title>
<polygon fill="#ecfdf5" stroke="#2f855a" points="677.59,-136.01 541.06,-136.01 541.06,-95.99 683.59,-95.99 683.59,-130.01 677.59,-136.01"/>
<polyline fill="none" stroke="#2f855a" points="677.59,-136.01 677.59,-130.01"/>
<polyline fill="none" stroke="#2f855a" points="683.59,-130.01 677.59,-130.01"/>
<text xml:space="preserve" text-anchor="middle" x="612.33" y="-118.85" font-family="Inter, Arial, sans-serif" font-size="12.00">sku_config.csv</text>
<text xml:space="preserve" text-anchor="middle" x="612.33" y="-104.6" font-family="Inter, Arial, sans-serif" font-size="12.00">MOQ, lot, service policy</text>
</g>
<!-- config_csv&#45;&gt;seed -->
<g id="edge13" class="edge">
<title>config_csv&#45;&gt;seed</title>
<path fill="none" stroke="#555555" d="M683.87,-116C750.53,-116 850.35,-116 919.49,-116"/>
<polygon fill="#555555" stroke="#555555" points="919.17,-118.63 926.67,-116 919.17,-113.38 919.17,-118.63"/>
</g>
<!-- seed&#45;&gt;postgres -->
<g id="edge14" class="edge">
<title>seed&#45;&gt;postgres</title>
<path fill="none" stroke="#555555" d="M1069.76,-124.96C1123.82,-134.07 1199.22,-151.6 1258.47,-184 1280.09,-195.83 1300.79,-212.92 1318.16,-229.58"/>
<polygon fill="#555555" stroke="#555555" points="1316.13,-231.27 1323.33,-234.64 1319.8,-227.51 1316.13,-231.27"/>
<text xml:space="preserve" text-anchor="middle" x="1211.59" y="-186.5" font-family="Inter, Arial, sans-serif" font-size="10.00">upsert</text>
</g>
</g>
</svg>
